<mxfile host="app.diagrams.net" modified="2021-05-24T08:55:06.492Z" agent="5.0 (Macintosh; Intel Mac OS X 10_15_7) AppleWebKit/537.36 (KHTML, like Gecko) Chrome/89.0.4389.90 Safari/537.36" etag="sx11gDSF41Ys49fVvTnM" version="14.7.0" type="github">
  <diagram id="twri2CAGCcx9iSkDeN8W" name="Page-1">
    <mxGraphModel dx="1298" dy="774" grid="1" gridSize="10" guides="1" tooltips="1" connect="1" arrows="1" fold="1" page="1" pageScale="1" pageWidth="827" pageHeight="1169" math="0" shadow="0">
      <root>
        <mxCell id="0" />
        <mxCell id="1" parent="0" />
        <mxCell id="ujEL6muEBZcrQy2mOvy8-2" style="edgeStyle=orthogonalEdgeStyle;orthogonalLoop=1;jettySize=auto;html=1;rounded=0;dashed=1;" edge="1" parent="1" source="ujEL6muEBZcrQy2mOvy8-1">
          <mxGeometry relative="1" as="geometry">
            <mxPoint x="145" y="740" as="targetPoint" />
            <Array as="points">
              <mxPoint x="145" y="740" />
            </Array>
          </mxGeometry>
        </mxCell>
        <mxCell id="ujEL6muEBZcrQy2mOvy8-1" value="livy-server" style="rounded=0;whiteSpace=wrap;html=1;" vertex="1" parent="1">
          <mxGeometry x="80" y="150" width="130" height="60" as="geometry" />
        </mxCell>
        <mxCell id="ujEL6muEBZcrQy2mOvy8-4" style="edgeStyle=orthogonalEdgeStyle;orthogonalLoop=1;jettySize=auto;html=1;rounded=0;dashed=1;" edge="1" parent="1" source="ujEL6muEBZcrQy2mOvy8-5">
          <mxGeometry relative="1" as="geometry">
            <mxPoint x="414" y="740" as="targetPoint" />
          </mxGeometry>
        </mxCell>
        <mxCell id="ujEL6muEBZcrQy2mOvy8-5" value="yarn" style="rounded=0;whiteSpace=wrap;html=1;" vertex="1" parent="1">
          <mxGeometry x="354" y="150" width="120" height="60" as="geometry" />
        </mxCell>
        <mxCell id="ujEL6muEBZcrQy2mOvy8-8" value="创建livy 新session请求&lt;br&gt;SessionServlet.post(/)" style="text;html=1;strokeColor=none;fillColor=none;align=center;verticalAlign=middle;whiteSpace=wrap;rounded=0;" vertex="1" parent="1">
          <mxGeometry x="160" y="280" width="150" height="20" as="geometry" />
        </mxCell>
        <mxCell id="ujEL6muEBZcrQy2mOvy8-9" value="" style="endArrow=classic;html=1;dashed=1;" edge="1" parent="1">
          <mxGeometry width="50" height="50" relative="1" as="geometry">
            <mxPoint x="150" y="310" as="sourcePoint" />
            <mxPoint x="390" y="310" as="targetPoint" />
          </mxGeometry>
        </mxCell>
        <mxCell id="ujEL6muEBZcrQy2mOvy8-10" value="InteractiveSessionServlet#createSession&lt;br&gt;LivyClientBuilder#build&lt;br&gt;LivyClientFactory#createClient&lt;br&gt;ContextLauncher#create&lt;br&gt;RSCDriverBootstrapper&lt;br&gt;RSCClient" style="text;html=1;align=center;verticalAlign=middle;resizable=0;points=[];autosize=1;strokeColor=none;" vertex="1" parent="1">
          <mxGeometry x="150" y="310" width="230" height="90" as="geometry" />
        </mxCell>
        <mxCell id="ujEL6muEBZcrQy2mOvy8-12" value="&lt;br&gt;RSCDriver" style="text;html=1;align=center;verticalAlign=middle;resizable=0;points=[];autosize=1;strokeColor=none;" vertex="1" parent="1">
          <mxGeometry x="379" y="400" width="70" height="30" as="geometry" />
        </mxCell>
      </root>
    </mxGraphModel>
  </diagram>
</mxfile>
